<svg viewBox="0 0 323 42" xmlns="http://www.w3.org/2000/svg" data-logo="logo">
        <g transform="translate(0, 1) rotate(0)" id="logogram" style="opacity: 1;"><path fill="url(#paint0_linear_7697_8782)" d="M24 0H16V12.0632C15.9663 14.2434 14.1885 16 12.0005 16H0V24H8.68629C10.808 24 12.8429 23.1571 14.3431 21.6569L21.6569 14.3431C23.1571 12.8429 24 10.808 24 8.68629V0Z"></path><path fill="url(#paint1_linear_7697_8782)" d="M16 40H24V27.9368C24.0337 25.7566 25.8115 24 27.9995 24H40V16H31.3137C29.192 16 27.1571 16.8429 25.6569 18.3431L18.3431 25.6569C16.8429 27.1571 16 29.192 16 31.3137V40Z"></path></g>
        <g transform="translate(46, 8)" id="logotype" style="opacity: 1;"><path d="M24.62 26L18.43 26L14.33 19.38L13.18 18.65L6.49 8.99L12.76 8.99L16.57 15.18L17.69 15.88L24.62 26ZM12.02 26L6.17 26L13.14 16.09L16.19 19.52L12.02 26ZM24.27 8.99L17.66 18.61L14.61 15.18L18.46 8.99L24.27 8.99ZM36.42 26L30.15 26L30.15 21.17L36.28 21.17Q38.52 21.17 40.20 20.28Q41.88 19.38 42.79 17.67Q43.70 15.95 43.70 13.61L43.70 13.61Q43.70 11.26 42.77 9.58Q41.84 7.90 40.18 6.99Q38.52 6.08 36.28 6.08L36.28 6.08L29.98 6.08L29.98 1.29L36.35 1.29Q39.15 1.29 41.51 2.18Q43.87 3.07 45.64 4.74Q47.41 6.40 48.37 8.66Q49.33 10.91 49.33 13.64L49.33 13.64Q49.33 16.34 48.37 18.61Q47.41 20.89 45.66 22.54Q43.91 24.18 41.54 25.09Q39.18 26 36.42 26L36.42 26ZM31.94 26L26.44 26L26.44 1.29L31.94 1.29L31.94 26ZM63.92 26.42L63.92 26.42Q61.13 26.42 58.76 25.44Q56.40 24.46 54.62 22.71Q52.83 20.96 51.85 18.63Q50.87 16.30 50.87 13.61L50.87 13.61Q50.87 10.88 51.85 8.57Q52.83 6.26 54.58 4.53Q56.33 2.79 58.69 1.83Q61.05 0.87 63.86 0.87L63.86 0.87Q66.62 0.87 68.98 1.83Q71.34 2.79 73.11 4.53Q74.88 6.26 75.86 8.59Q76.84 10.91 76.84 13.64L76.84 13.64Q76.84 16.34 75.86 18.67Q74.88 20.99 73.13 22.73Q71.38 24.46 69.02 25.44Q66.66 26.42 63.92 26.42ZM63.86 21.41L63.86 21.41Q66.06 21.41 67.72 20.43Q69.39 19.45 70.30 17.69Q71.20 15.92 71.20 13.61L71.20 13.61Q71.20 11.86 70.68 10.44Q70.16 9.02 69.17 7.99Q68.19 6.96 66.85 6.42Q65.50 5.87 63.86 5.87L63.86 5.87Q61.65 5.87 59.99 6.84Q58.33 7.80 57.41 9.53Q56.51 11.26 56.51 13.61L56.51 13.61Q56.51 15.36 57.03 16.80Q57.55 18.23 58.52 19.26Q59.48 20.29 60.84 20.86Q62.21 21.41 63.86 21.41ZM89.90 26L84.40 26L84.40 1.64L89.90 1.64L89.90 26ZM97.63 6.08L76.67 6.08L76.67 1.29L97.63 1.29L97.63 6.08ZM117.13 26.39L117.13 26.39Q114.36 26.39 112.00 25.42Q109.64 24.46 107.87 22.71Q106.10 20.96 105.12 18.63Q104.14 16.30 104.14 13.61L104.14 13.61Q104.14 10.91 105.12 8.59Q106.10 6.26 107.85 4.54Q109.60 2.83 111.96 1.87Q114.33 0.90 117.09 0.90L117.09 0.90Q120.03 0.90 122.32 1.85Q124.62 2.79 126.33 4.44L126.33 4.44L122.66 8.15Q121.68 7.10 120.29 6.50Q118.91 5.91 117.09 5.91L117.09 5.91Q115.48 5.91 114.13 6.45Q112.79 6.99 111.82 8.01Q110.86 9.02 110.32 10.46Q109.78 11.89 109.78 13.61L109.78 13.61Q109.78 15.36 110.32 16.80Q110.86 18.23 111.82 19.24Q112.79 20.26 114.13 20.82Q115.48 21.38 117.09 21.38L117.09 21.38Q118.98 21.38 120.38 20.79Q121.78 20.19 122.80 19.14L122.80 19.14L126.51 22.85Q124.72 24.50 122.43 25.44Q120.14 26.39 117.13 26.39ZM136.13 26.39L136.13 26.39Q133.51 26.39 131.39 25.21Q129.27 24.04 128.05 22.01Q126.82 19.98 126.82 17.46L126.82 17.46Q126.82 14.94 128.05 12.94Q129.27 10.95 131.37 9.78Q133.47 8.60 136.13 8.60L136.13 8.60Q138.79 8.60 140.89 9.76Q142.99 10.91 144.22 12.93Q145.44 14.94 145.44 17.46L145.44 17.46Q145.44 19.98 144.22 22.01Q142.99 24.04 140.89 25.21Q138.79 26.39 136.13 26.39ZM136.13 21.52L136.13 21.52Q137.29 21.52 138.16 21.01Q139.04 20.50 139.51 19.58Q139.98 18.65 139.98 17.46L139.98 17.46Q139.98 16.27 139.49 15.38Q139 14.48 138.14 13.98Q137.29 13.47 136.13 13.47L136.13 13.47Q135.01 13.47 134.14 13.98Q133.26 14.48 132.77 15.39Q132.28 16.30 132.28 17.49L132.28 17.49Q132.28 18.65 132.77 19.58Q133.26 20.50 134.14 21.01Q135.01 21.52 136.13 21.52ZM163.99 26L158.64 26L158.64 16.30Q158.64 14.97 157.81 14.15Q156.99 13.33 155.73 13.33L155.73 13.33Q154.86 13.33 154.19 13.70Q153.53 14.06 153.14 14.75Q152.76 15.43 152.76 16.30L152.76 16.30L150.69 15.29Q150.69 13.29 151.57 11.79Q152.44 10.28 154.00 9.46Q155.56 8.64 157.52 8.64L157.52 8.64Q159.41 8.64 160.86 9.53Q162.31 10.42 163.15 11.89Q163.99 13.36 163.99 15.11L163.99 15.11L163.99 26ZM152.76 26L147.40 26L147.40 8.99L152.76 8.99L152.76 26ZM174.28 26L168.93 26L168.93 1.95L174.28 1.95L174.28 26ZM178.13 13.54L165.08 13.54L165.08 8.99L178.13 8.99L178.13 13.54ZM185.13 26L179.78 26L179.78 8.99L185.13 8.99L185.13 26ZM185.13 16.66L185.13 16.66L182.89 14.90Q183.56 11.93 185.13 10.28Q186.71 8.64 189.51 8.64L189.51 8.64Q190.73 8.64 191.66 9.01Q192.59 9.38 193.29 10.14L193.29 10.14L190.10 14.17Q189.75 13.78 189.23 13.57Q188.70 13.36 188.04 13.36L188.04 13.36Q186.71 13.36 185.92 14.19Q185.13 15.01 185.13 16.66ZM200.64 26.35L200.64 26.35Q198.29 26.35 196.45 25.20Q194.62 24.04 193.55 22.04Q192.48 20.05 192.48 17.49L192.48 17.49Q192.48 14.94 193.55 12.94Q194.62 10.95 196.45 9.79Q198.29 8.64 200.64 8.64L200.64 8.64Q202.35 8.64 203.73 9.30Q205.12 9.97 205.99 11.14Q206.87 12.31 206.97 13.82L206.97 13.82L206.97 21.17Q206.87 22.68 206.01 23.85Q205.15 25.02 203.75 25.68Q202.35 26.35 200.64 26.35ZM201.72 21.52L201.72 21.52Q203.44 21.52 204.49 20.38Q205.54 19.24 205.54 17.49L205.54 17.49Q205.54 16.30 205.06 15.39Q204.59 14.48 203.73 13.98Q202.88 13.47 201.76 13.47L201.76 13.47Q200.64 13.47 199.78 13.98Q198.92 14.48 198.41 15.39Q197.91 16.30 197.91 17.49L197.91 17.49Q197.91 18.65 198.40 19.56Q198.89 20.47 199.76 20.99Q200.64 21.52 201.72 21.52ZM210.58 26L205.33 26L205.33 21.41L206.13 17.28L205.33 13.15L205.33 8.99L210.58 8.99L210.58 26ZM221.88 26.39L221.88 26.39Q219.26 26.39 217.12 25.23Q214.99 24.07 213.76 22.04Q212.54 20.02 212.54 17.49L212.54 17.49Q212.54 14.94 213.78 12.93Q215.02 10.91 217.16 9.76Q219.29 8.60 221.95 8.60L221.95 8.60Q223.95 8.60 225.61 9.29Q227.27 9.97 228.57 11.33L228.57 11.33L225.14 14.76Q224.54 14.10 223.75 13.78Q222.97 13.47 221.95 13.47L221.95 13.47Q220.80 13.47 219.90 13.98Q219.01 14.48 218.50 15.38Q218.00 16.27 218.00 17.46L218.00 17.46Q218.00 18.65 218.50 19.56Q219.01 20.47 219.92 20.99Q220.83 21.52 221.95 21.52L221.95 21.52Q223.00 21.52 223.82 21.15Q224.65 20.79 225.24 20.12L225.24 20.12L228.64 23.55Q227.31 24.95 225.63 25.67Q223.95 26.39 221.88 26.39ZM237.81 26L232.45 26L232.45 1.95L237.81 1.95L237.81 26ZM241.66 13.54L228.60 13.54L228.60 8.99L241.66 8.99L241.66 13.54ZM251.14 26.39L251.14 26.39Q248.52 26.39 246.40 25.21Q244.28 24.04 243.06 22.01Q241.83 19.98 241.83 17.46L241.83 17.46Q241.83 14.94 243.06 12.94Q244.28 10.95 246.38 9.78Q248.48 8.60 251.14 8.60L251.14 8.60Q253.80 8.60 255.90 9.76Q258.00 10.91 259.23 12.93Q260.45 14.94 260.45 17.46L260.45 17.46Q260.45 19.98 259.23 22.01Q258.00 24.04 255.90 25.21Q253.80 26.39 251.14 26.39ZM251.14 21.52L251.14 21.52Q252.30 21.52 253.17 21.01Q254.05 20.50 254.52 19.58Q254.99 18.65 254.99 17.46L254.99 17.46Q254.99 16.27 254.50 15.38Q254.01 14.48 253.15 13.98Q252.30 13.47 251.14 13.47L251.14 13.47Q250.02 13.47 249.15 13.98Q248.27 14.48 247.78 15.39Q247.29 16.30 247.29 17.49L247.29 17.49Q247.29 18.65 247.78 19.58Q248.27 20.50 249.15 21.01Q250.02 21.52 251.14 21.52ZM267.77 26L262.41 26L262.41 8.99L267.77 8.99L267.77 26ZM267.77 16.66L267.77 16.66L265.53 14.90Q266.19 11.93 267.77 10.28Q269.34 8.64 272.14 8.64L272.14 8.64Q273.37 8.64 274.29 9.01Q275.22 9.38 275.92 10.14L275.92 10.14L272.74 14.17Q272.39 13.78 271.86 13.57Q271.34 13.36 270.67 13.36L270.67 13.36Q269.34 13.36 268.55 14.19Q267.77 15.01 267.77 16.66Z" fill="#2592ed"></path></g>
        <defs xmlns="http://www.w3.org/2000/svg">
<linearGradient gradientUnits="userSpaceOnUse" y2="33.7931" x2="20" y1="-0.997096" x1="20" id="paint0_linear_7697_8782">
<stop stop-color="#75D8FC"></stop>
<stop stop-color="#0072E5" offset="1"></stop>
</linearGradient>
<linearGradient gradientUnits="userSpaceOnUse" y2="33.7931" x2="20" y1="-0.997096" x1="20" id="paint1_linear_7697_8782">
<stop stop-color="#75D8FC"></stop>
<stop stop-color="#0072E5" offset="1"></stop>
</linearGradient>
</defs>
      </svg>